<mxfile host="app.diagrams.net" modified="2022-04-01T23:09:20.931Z" agent="5.0 (Macintosh; Intel Mac OS X 10_15_7) AppleWebKit/605.1.15 (KHTML, like Gecko) Version/15.3 Safari/605.1.15" etag="2PiBMAszyOsAamtonCAf" version="17.2.4" type="github">
  <diagram name="Page-1" id="2cc2dc42-3aac-f2a9-1cec-7a8b7cbee084">
    <mxGraphModel dx="1200" dy="715" grid="1" gridSize="10" guides="1" tooltips="1" connect="1" arrows="1" fold="1" page="1" pageScale="1" pageWidth="1100" pageHeight="850" background="none" math="0" shadow="0">
      <root>
        <mxCell id="0" />
        <mxCell id="1" parent="0" />
        <mxCell id="44KrbLXChHcNnWz68qvF-1" value="&lt;font style=&quot;font-size: 30px&quot;&gt;ECE Graduation Requirements Validator&lt;/font&gt;" style="text;html=1;resizable=0;autosize=1;align=center;verticalAlign=middle;points=[];fillColor=none;strokeColor=none;rounded=0;" parent="1" vertex="1">
          <mxGeometry x="220" y="60" width="560" height="20" as="geometry" />
        </mxCell>
        <mxCell id="44KrbLXChHcNnWz68qvF-3" value="&lt;font style=&quot;font-size: 20px&quot;&gt;File Upload&lt;/font&gt;" style="rounded=1;whiteSpace=wrap;html=1;fontSize=30;" parent="1" vertex="1">
          <mxGeometry x="465" y="240" width="120" height="60" as="geometry" />
        </mxCell>
        <mxCell id="44KrbLXChHcNnWz68qvF-4" value="&lt;font style=&quot;line-height: 1 ; font-size: 16px&quot;&gt;Download Template File&lt;/font&gt;" style="rounded=1;whiteSpace=wrap;html=1;fontSize=30;" parent="1" vertex="1">
          <mxGeometry x="300" y="240" width="120" height="60" as="geometry" />
        </mxCell>
        <mxCell id="44KrbLXChHcNnWz68qvF-5" value="&lt;font style=&quot;font-size: 20px&quot;&gt;Introductory paragraph explaining how to use the tool&lt;/font&gt;" style="text;html=1;resizable=0;autosize=1;align=center;verticalAlign=middle;points=[];fillColor=none;strokeColor=none;rounded=0;" parent="1" vertex="1">
          <mxGeometry x="260" y="130" width="490" height="20" as="geometry" />
        </mxCell>
        <mxCell id="44KrbLXChHcNnWz68qvF-8" value="&lt;div style=&quot;text-align: left&quot;&gt;&lt;/div&gt;" style="rounded=1;whiteSpace=wrap;html=1;fontSize=20;" parent="1" vertex="1">
          <mxGeometry x="172" y="411" width="290" height="190" as="geometry" />
        </mxCell>
        <mxCell id="44KrbLXChHcNnWz68qvF-9" value="&lt;font style=&quot;font-size: 20px&quot;&gt;Output Information&lt;/font&gt;" style="text;html=1;resizable=0;autosize=1;align=center;verticalAlign=middle;points=[];fillColor=none;strokeColor=none;rounded=0;" parent="1" vertex="1">
          <mxGeometry x="440" y="360" width="180" height="20" as="geometry" />
        </mxCell>
        <mxCell id="44KrbLXChHcNnWz68qvF-10" value="&lt;font&gt;&lt;span style=&quot;font-size: 20px&quot;&gt;Requirements Satisfied&lt;/span&gt;&lt;br&gt;&lt;div style=&quot;text-align: left&quot;&gt;&lt;span style=&quot;font-size: 20px&quot;&gt;&lt;br&gt;&lt;/span&gt;&lt;/div&gt;&lt;div style=&quot;text-align: left&quot;&gt;&lt;ul&gt;&lt;li&gt;&lt;span style=&quot;font-size: 20px&quot;&gt;Requirement 1&lt;/span&gt;&lt;/li&gt;&lt;ul&gt;&lt;li&gt;&lt;span style=&quot;font-size: 20px&quot;&gt;Classes used&lt;/span&gt;&lt;/li&gt;&lt;/ul&gt;&lt;li&gt;&lt;span style=&quot;font-size: 20px&quot;&gt;Requirement 2&lt;/span&gt;&lt;/li&gt;&lt;ul&gt;&lt;li&gt;&lt;span style=&quot;font-size: 20px&quot;&gt;Classes used&lt;/span&gt;&lt;/li&gt;&lt;/ul&gt;&lt;/ul&gt;&lt;/div&gt;&lt;/font&gt;" style="text;html=1;resizable=0;autosize=1;align=center;verticalAlign=middle;points=[];fillColor=none;strokeColor=none;rounded=0;" parent="1" vertex="1">
          <mxGeometry x="202" y="451" width="220" height="120" as="geometry" />
        </mxCell>
        <mxCell id="44KrbLXChHcNnWz68qvF-11" value="&lt;div style=&quot;text-align: left&quot;&gt;&lt;/div&gt;" style="rounded=1;whiteSpace=wrap;html=1;fontSize=20;" parent="1" vertex="1">
          <mxGeometry x="619" y="411" width="290" height="190" as="geometry" />
        </mxCell>
        <mxCell id="44KrbLXChHcNnWz68qvF-13" value="&lt;font style=&quot;font-size: 20px&quot;&gt;Run Validator&lt;/font&gt;" style="rounded=1;whiteSpace=wrap;html=1;fontSize=30;" parent="1" vertex="1">
          <mxGeometry x="630" y="240" width="120" height="60" as="geometry" />
        </mxCell>
        <mxCell id="44KrbLXChHcNnWz68qvF-14" value="&lt;font&gt;&lt;span style=&quot;font-size: 20px&quot;&gt;Requirements Missing&lt;/span&gt;&lt;br&gt;&lt;div style=&quot;text-align: left&quot;&gt;&lt;span style=&quot;font-size: 20px&quot;&gt;&lt;br&gt;&lt;/span&gt;&lt;/div&gt;&lt;div style=&quot;text-align: left&quot;&gt;&lt;ul&gt;&lt;li&gt;&lt;span style=&quot;font-size: 20px&quot;&gt;Requirement 1&lt;/span&gt;&lt;/li&gt;&lt;ul&gt;&lt;li&gt;&lt;span style=&quot;font-size: 20px&quot;&gt;Possible classes&lt;/span&gt;&lt;/li&gt;&lt;/ul&gt;&lt;li&gt;&lt;span style=&quot;font-size: 20px&quot;&gt;Requirement 2&lt;/span&gt;&lt;/li&gt;&lt;ul&gt;&lt;li&gt;&lt;span style=&quot;font-size: 20px&quot;&gt;Possible classes&lt;/span&gt;&lt;/li&gt;&lt;/ul&gt;&lt;/ul&gt;&lt;/div&gt;&lt;/font&gt;" style="text;html=1;resizable=0;autosize=1;align=center;verticalAlign=middle;points=[];fillColor=none;strokeColor=none;rounded=0;" parent="1" vertex="1">
          <mxGeometry x="644" y="451" width="240" height="120" as="geometry" />
        </mxCell>
        <mxCell id="SJmn_siIDE_zV1leDHv6-1" value="" style="rounded=1;whiteSpace=wrap;html=1;" vertex="1" parent="1">
          <mxGeometry x="78" y="670" width="120" height="60" as="geometry" />
        </mxCell>
        <mxCell id="SJmn_siIDE_zV1leDHv6-2" value="" style="rounded=1;whiteSpace=wrap;html=1;" vertex="1" parent="1">
          <mxGeometry x="228" y="670" width="120" height="60" as="geometry" />
        </mxCell>
        <mxCell id="SJmn_siIDE_zV1leDHv6-3" value="" style="rounded=1;whiteSpace=wrap;html=1;" vertex="1" parent="1">
          <mxGeometry x="378" y="670" width="120" height="60" as="geometry" />
        </mxCell>
        <mxCell id="SJmn_siIDE_zV1leDHv6-4" value="&lt;font style=&quot;font-size: 20px&quot;&gt;Visual Representation of the Classes&lt;/font&gt;" style="text;html=1;resizable=0;autosize=1;align=center;verticalAlign=middle;points=[];fillColor=none;strokeColor=none;rounded=0;" vertex="1" parent="1">
          <mxGeometry x="153" y="640" width="340" height="20" as="geometry" />
        </mxCell>
        <mxCell id="SJmn_siIDE_zV1leDHv6-5" value="" style="rounded=1;whiteSpace=wrap;html=1;" vertex="1" parent="1">
          <mxGeometry x="530" y="670" width="120" height="60" as="geometry" />
        </mxCell>
        <mxCell id="SJmn_siIDE_zV1leDHv6-6" value="" style="rounded=1;whiteSpace=wrap;html=1;" vertex="1" parent="1">
          <mxGeometry x="680" y="670" width="120" height="60" as="geometry" />
        </mxCell>
        <mxCell id="SJmn_siIDE_zV1leDHv6-7" value="" style="rounded=1;whiteSpace=wrap;html=1;" vertex="1" parent="1">
          <mxGeometry x="830" y="670" width="120" height="60" as="geometry" />
        </mxCell>
        <mxCell id="SJmn_siIDE_zV1leDHv6-8" value="&lt;font style=&quot;font-size: 20px&quot;&gt;Visual Representation of the Classes&lt;/font&gt;" style="text;html=1;resizable=0;autosize=1;align=center;verticalAlign=middle;points=[];fillColor=none;strokeColor=none;rounded=0;" vertex="1" parent="1">
          <mxGeometry x="605" y="640" width="340" height="20" as="geometry" />
        </mxCell>
      </root>
    </mxGraphModel>
  </diagram>
</mxfile>
